<svg width="24" height="24" viewBox="0 0 24 24" fill="none" xmlns="http://www.w3.org/2000/svg">
<path d="M15.4385 11.8283V10.7847L16.6485 11.3288C17.1786 11.5672 17.786 11.5632 18.3129 11.318L19.5581 10.7383V11.8283C19.5581 12.9659 18.6359 13.8881 17.4983 13.8881C16.3607 13.8881 15.4385 12.9659 15.4385 11.8283Z" stroke="#28303F" stroke-width="1.5" stroke-linecap="round"/>
<path d="M21.5219 9.41092L18.1005 7.89027C17.7075 7.71561 17.2589 7.71561 16.8659 7.89027L13.4445 9.41092C13.2439 9.50006 13.2439 9.78472 13.4445 9.87387L16.8659 11.3945C17.2589 11.5692 17.7075 11.5692 18.1005 11.3945L21.5219 9.87387C21.7225 9.78472 21.7225 9.50006 21.5219 9.41092Z" stroke="#28303F" stroke-width="1.5" stroke-linecap="round" stroke-linejoin="round"/>
<path d="M15.4709 15.4526C15.5739 15.4163 15.6796 15.3827 15.7877 15.352C15.963 15.3021 16.1506 15.3557 16.2791 15.4814L17.1109 16.2952C17.3158 16.4957 17.6506 16.4957 17.8555 16.2952L18.6874 15.4814C18.8159 15.3557 19.0035 15.3021 19.1788 15.352C20.6477 15.7699 21.6724 16.7142 21.6724 17.8121C21.6724 18.3716 21.2035 18.8253 20.6251 18.8253H16.6632" stroke="#28303F" stroke-width="1.5" stroke-linecap="round" stroke-linejoin="round"/>
<line x1="13.6445" y1="10.3926" x2="13.6445" y2="12.0589" stroke="#28303F" stroke-width="1.5" stroke-linecap="round"/>
<path d="M5.49777 9.83874V8.20265L7.76969 9.04934C8.22018 9.21723 8.71606 9.21723 9.16655 9.04934L11.4385 8.20265V9.83874C11.4385 11.4792 10.1086 12.8091 8.46812 12.8091C6.82764 12.8091 5.49777 11.4792 5.49777 9.83874Z" stroke="#28303F" stroke-width="1.5" stroke-linecap="round"/>
<path d="M14.3879 6.07475L9.37279 3.84582C8.79677 3.58981 8.13925 3.58981 7.56323 3.84582L2.54813 6.07475C2.25413 6.20542 2.25413 6.62267 2.54813 6.75334L7.56323 8.98228C8.13925 9.23829 8.79677 9.23829 9.37279 8.98228L14.3879 6.75334C14.6819 6.62267 14.6819 6.20542 14.3879 6.07475Z" stroke="#28303F" stroke-width="1.5" stroke-linecap="round" stroke-linejoin="round"/>
<path d="M6.703 14.9912L7.92227 16.184C8.22269 16.4779 8.71334 16.4779 9.01376 16.184L10.233 14.9912C10.4214 14.807 10.6964 14.7284 10.9533 14.8015C13.1064 15.4141 14.6084 16.7982 14.6084 18.4074C14.6084 19.2277 13.9211 19.8926 13.0733 19.8926H3.86272C3.01491 19.8926 2.32763 19.2277 2.32763 18.4074C2.32763 16.7982 3.82961 15.4141 5.98269 14.8015C6.23967 14.7284 6.51464 14.807 6.703 14.9912Z" stroke="#28303F" stroke-width="1.5" stroke-linecap="round" stroke-linejoin="round"/>
<line x1="3.2002" y1="7.28125" x2="3.2002" y2="10.3051" stroke="#28303F" stroke-width="1.5" stroke-linecap="round"/>
</svg>
