<svg width="24" height="24" viewBox="0 0 24 24" fill="none" xmlns="http://www.w3.org/2000/svg">
<circle cx="14.0392" cy="5.26833" r="1.14186" stroke="#28303F" stroke-width="1.5"/>
<path d="M6.61645 16.8856C6.61645 17.6128 6.02691 18.2024 5.29968 18.2024C4.57245 18.2024 3.98291 17.6128 3.98291 16.8856C3.98291 16.1584 4.57245 15.5688 5.29968 15.5688C6.02691 15.5688 6.61645 16.1584 6.61645 16.8856Z" stroke="#28303F" stroke-width="1.5"/>
<path d="M9.24998 16.8856C9.24998 19.0673 6.61644 22.1527 5.29967 22.1527C3.9829 22.1527 1.34937 19.0673 1.34937 16.8856C1.34937 14.7039 3.11798 12.9353 5.29967 12.9353C7.48137 12.9353 9.24998 14.7039 9.24998 16.8856Z" stroke="#28303F" stroke-width="1.5"/>
<path d="M17.4648 5.26836C17.4648 7.16026 15.1811 9.8358 14.0392 9.8358C12.8974 9.8358 10.6136 7.16026 10.6136 5.26836C10.6136 3.37646 12.1473 1.84277 14.0392 1.84277C15.9311 1.84277 17.4648 3.37646 17.4648 5.26836Z" stroke="#28303F" stroke-width="1.5"/>
<path d="M13.9455 12.1946V14.9599C13.9455 16.2258 14.9718 17.252 16.2377 17.252H18.495C19.7802 17.252 20.822 18.2939 20.822 19.5791C20.822 20.8642 19.7802 21.9061 18.495 21.9061H9.96451" stroke="#28303F" stroke-width="1.5" stroke-linecap="round"/>
</svg>
