<svg width="24" height="24" viewBox="0 0 24 24" fill="none" xmlns="http://www.w3.org/2000/svg">
<path d="M8 2.29529C6.13272 2.5043 3.85997 4.05239 2.72215 4.91272C2.25538 5.26566 2 5.82238 2 6.40757V16.077C2 16.9304 3.0279 17.4253 3.73627 16.9493C4.66363 16.3261 5.84581 15.6382 6.98303 15.2799M8 2.29529C11.3183 1.92386 12.6817 5.8568 16 5.48537M8 2.29529V11.77M16 5.48537C17.4113 5.3274 19.0542 4.40447 20.2637 3.5917C20.9721 3.11568 22 3.61058 22 4.46404V14.1334C22 14.7186 21.7446 15.2754 21.2778 15.6283C20.14 16.4886 17.8673 18.0367 16 18.2457M16 5.48537V11.8656" stroke="#28303F" stroke-width="1.5"/>
<path d="M17 14.7438C17 17.3948 14.5 21.9438 12 21.9438C9.5 21.9438 7 17.3948 7 14.7438C7 12.0929 9.23858 9.94385 12 9.94385C14.7614 9.94385 17 12.0929 17 14.7438Z" stroke="#28303F" stroke-width="1.5"/>
<path d="M13.5 14.4438C13.5 15.2723 12.8284 15.9438 12 15.9438C11.1716 15.9438 10.5 15.2723 10.5 14.4438C10.5 13.6154 11.1716 12.9438 12 12.9438C12.8284 12.9438 13.5 13.6154 13.5 14.4438Z" stroke="#28303F" stroke-width="1.5"/>
</svg>
