<svg width="24" height="24" viewBox="0 0 24 24" fill="none" xmlns="http://www.w3.org/2000/svg">
<path d="M8.56641 6.02478C6.69913 6.23379 4.42638 7.78189 3.28856 8.64222C2.82178 8.99516 2.56641 9.55187 2.56641 10.1371V19.8065C2.56641 20.6599 3.59431 21.1548 4.30267 20.6788C5.51216 19.866 7.1551 18.9431 8.56641 18.7851M8.56641 6.02478C11.8847 5.65335 13.2481 9.5863 16.5664 9.21487M8.56641 6.02478V18.7851M16.5664 9.21487C17.9777 9.0569 19.6207 8.13397 20.8301 7.32119C21.5385 6.84517 22.5664 7.34007 22.5664 8.19353V17.8629C22.5664 18.4481 22.311 19.0048 21.8443 19.3578C20.7064 20.2181 18.4337 21.7662 16.5664 21.9752M16.5664 9.21487V21.9752M8.56641 18.7851C11.8847 18.4137 13.2481 22.3466 16.5664 21.9752" stroke="#28303F" stroke-width="1.5"/>
<path d="M13.1022 13.1071C13.1022 13.5213 13.438 13.8571 13.8522 13.8571C14.2664 13.8571 14.6022 13.5213 14.6022 13.1071H13.1022ZM13.8522 2.0835V1.3335C13.6533 1.3335 13.4625 1.41251 13.3218 1.55317C13.1812 1.69382 13.1022 1.88458 13.1022 2.0835L13.8522 2.0835ZM19.8522 2.0835L20.5179 2.42893C20.6385 2.19643 20.6291 1.91783 20.4931 1.69399C20.3571 1.47015 20.1141 1.3335 19.8522 1.3335V2.0835ZM19.8522 5.70663V6.45662C20.1214 6.45662 20.3699 6.31237 20.5034 6.07864C20.6369 5.84491 20.6349 5.55755 20.4982 5.32568L19.8522 5.70663ZM18.8522 4.01069L18.1865 3.66526C18.0675 3.89461 18.0749 4.16906 18.2061 4.39163L18.8522 4.01069ZM14.6022 13.1071V5.70663H13.1022V13.1071H14.6022ZM13.8522 2.8335H19.8522V1.3335H13.8522V2.8335ZM19.8522 4.95663H13.8522V6.45662H19.8522V4.95663ZM14.6022 5.70663V2.0835L13.1022 2.0835V5.70663H14.6022ZM19.1865 1.73806L18.1865 3.66526L19.5179 4.35612L20.5179 2.42893L19.1865 1.73806ZM18.2061 4.39163L19.2061 6.08757L20.4982 5.32568L19.4982 3.62975L18.2061 4.39163Z" fill="#28303F"/>
</svg>
