<svg width="24" height="24" viewBox="0 0 24 24" fill="none" xmlns="http://www.w3.org/2000/svg">
<path d="M12 16V17" stroke="#28303F" stroke-width="1.5" stroke-linecap="round"/>
<path d="M12 11.5V12.5" stroke="#28303F" stroke-width="1.5" stroke-linecap="round"/>
<path d="M12 7V8" stroke="#28303F" stroke-width="1.5" stroke-linecap="round"/>
<path d="M11.1676 4H8.38609C7.5524 4 6.80616 4.51714 6.51343 5.29775L2.01343 17.2978C1.52312 18.6053 2.48968 20 3.88609 20H20.1141C21.5105 20 22.4771 18.6053 21.9867 17.2978L20.7084 13.889" stroke="#28303F" stroke-width="1.5" stroke-linecap="round"/>
<path d="M19.4245 6.31254C19.4245 7.07185 18.809 7.68739 18.0497 7.68739C17.2904 7.68739 16.6748 7.07185 16.6748 6.31254C16.6748 5.55323 17.2904 4.93769 18.0497 4.93769C18.809 4.93769 19.4245 5.55323 19.4245 6.31254Z" stroke="#28303F" stroke-width="1.5"/>
<path d="M22.1742 6.31253C22.1742 8.59046 19.4245 11.8119 18.0497 11.8119C16.6748 11.8119 13.9251 8.59046 13.9251 6.31253C13.9251 4.03461 15.7717 2.18799 18.0497 2.18799C20.3276 2.18799 22.1742 4.03461 22.1742 6.31253Z" stroke="#28303F" stroke-width="1.5"/>
</svg>
