<svg width="24" height="24" viewBox="0 0 24 24" fill="none" xmlns="http://www.w3.org/2000/svg">
<path d="M16.2426 7.75714C17.3284 8.84292 18 10.3429 18 11.9998C18 13.6566 17.3284 15.1566 16.2426 16.2424M19.0711 4.92871C20.8807 6.73836 22 9.23836 22 11.9998C22 14.7612 20.8807 17.2612 19.0711 19.0708M4.92893 19.0708C3.11929 17.2612 2 14.7612 2 11.9998C2 9.23835 3.11929 6.73835 4.92893 4.92871M7.75736 16.2424C6.67157 15.1566 6 13.6566 6 11.9998C6 10.3429 6.67157 8.84292 7.75736 7.75714M14 11.9998C14 13.1043 13.1046 13.9998 12 13.9998C10.8954 13.9998 10 13.1043 10 11.9998C10 10.8952 10.8954 9.99976 12 9.99976C13.1046 9.99976 14 10.8952 14 11.9998Z" stroke="#28303F" stroke-width="1.5" stroke-linecap="round" stroke-linejoin="round"/>
</svg>
