<svg width="24" height="24" viewBox="0 0 24 24" fill="none" xmlns="http://www.w3.org/2000/svg">
<path d="M10.3755 2.72201L5.3777 4.94327C3.93208 5.58577 2.97809 7.02461 3.07008 8.6039C3.42971 14.7781 5.23776 17.4963 9.93588 20.6769C11.1805 21.5195 12.821 21.5216 14.0647 20.6776C18.7773 17.4796 20.5206 14.7231 20.9119 8.62529C21.0139 7.03555 20.0583 5.58144 18.6026 4.93446L13.6246 2.72201C12.5904 2.26234 11.4098 2.26234 10.3755 2.72201Z" stroke="#28303F" stroke-width="1.5"/>
<path d="M15.0001 12C15.0001 13.6568 13.6569 15 12.0001 15C10.3432 15 9.00008 13.6568 9.00008 12C9.00008 10.3431 10.3432 8.99999 12.0001 8.99999C13.6569 8.99999 15.0001 10.3431 15.0001 12Z" stroke="#28303F" stroke-width="1.5"/>
</svg>
