<svg width="24" height="24" viewBox="0 0 24 24" fill="none" xmlns="http://www.w3.org/2000/svg">
<path d="M17.4818 10.3355L18.896 11.7497M15.3604 12.4568V13.871M19.603 8.21416H21.0172M7.99982 6L3.20513 11.5938C2.525 12.3873 2.57045 13.5706 3.30943 14.3096L10.9998 22M10.9998 22H14.9998M10.9998 22H6.99982M8.15052 5.23296L9.80044 9.2399C10.3438 10.5596 12.0549 10.9018 13.064 9.89261L15.8924 7.06419C16.9016 6.05504 16.5594 4.34401 15.2397 3.80062L11.2328 2.1507C10.4862 1.84328 9.62799 2.01493 9.05707 2.58584L8.58567 3.05725C8.01475 3.62817 7.84311 4.48638 8.15052 5.23296Z" stroke="#28303F" stroke-width="1.5" stroke-linecap="round" stroke-linejoin="round"/>
</svg>
