<svg width="24" height="24" viewBox="0 0 24 24" fill="none" xmlns="http://www.w3.org/2000/svg">
<path d="M8 6.52038C6.13272 6.72939 3.85997 8.27749 2.72215 9.13782C2.25538 9.49076 2 10.0475 2 10.6327V20.3021C2 21.1555 3.0279 21.6504 3.73627 21.1744C4.94575 20.3616 6.58869 19.4387 8 19.2807M8 6.52038V19.2807M8 6.52038C10.9642 6.1886 12.3684 9.29147 14.9996 9.69278C15.314 9.74073 15.6459 9.75011 16 9.71047M16 9.71047C16.3331 9.67318 16.6792 9.59327 17.0294 9.48225C18.1628 9.12293 19.3397 8.43772 20.2637 7.8168C20.9721 7.34078 22 7.83568 22 8.68913V18.3585C22 18.9437 21.7446 19.5005 21.2778 19.8534C20.14 20.7137 17.8673 22.2618 16 22.4708M16 9.71047V22.4708M8 19.2807C11.3183 18.9093 12.6817 22.8423 16 22.4708" stroke="#28303F" stroke-width="1.5"/>
<path d="M18.3833 6.49561C19.4879 6.49561 20.3833 5.60018 20.3833 4.49561C20.3833 3.39104 19.4879 2.49561 18.3833 2.49561C17.2788 2.49561 16.3833 3.39104 16.3833 4.49561C16.3833 5.60018 17.2788 6.49561 18.3833 6.49561ZM18.3833 6.49561V14.4956" stroke="#28303F" stroke-width="1.5" stroke-linecap="round"/>
</svg>
