<svg width="24" height="24" viewBox="0 0 24 24" fill="none" xmlns="http://www.w3.org/2000/svg">
<path d="M8 18.8343C6.58869 18.9923 4.94575 19.9152 3.73627 20.728C3.0279 21.204 2 20.7091 2 19.8557V10.1863C2 9.60107 2.25538 9.04435 2.72215 8.69142C3.73204 7.92782 5.63599 6.62242 7.35696 6.19238M8 18.8343C11.3183 18.4629 12.6817 22.3958 16 22.0244M8 18.8343V9.37839M16 22.0244C17.8673 21.8154 20.14 20.2673 21.2778 19.407C21.7446 19.054 22 18.4973 22 17.9121V8.24273C22 7.38927 20.9721 6.89437 20.2637 7.37039C19.2688 8.03897 17.9806 8.78208 16.7693 9.11264M16 22.0244V11.2113" stroke="#28303F" stroke-width="1.5"/>
<path d="M17.4619 6.86348C17.4619 9.51444 14.9619 14.0635 12.4619 14.0635C9.96191 14.0635 7.46191 9.51444 7.46191 6.86348C7.46191 4.21251 9.70049 2.06348 12.4619 2.06348C15.2233 2.06348 17.4619 4.21251 17.4619 6.86348Z" stroke="#28303F" stroke-width="1.5"/>
<path d="M13.9619 6.56348C13.9619 7.3919 13.2903 8.06348 12.4619 8.06348C11.6335 8.06348 10.9619 7.3919 10.9619 6.56348C10.9619 5.73505 11.6335 5.06348 12.4619 5.06348C13.2903 5.06348 13.9619 5.73505 13.9619 6.56348Z" stroke="#28303F" stroke-width="1.5"/>
</svg>
