<svg width="24" height="24" viewBox="0 0 24 24" fill="none" xmlns="http://www.w3.org/2000/svg">
<path d="M22 18.9999L19.3849 17.4309C17.9512 16.5707 16.1338 16.6929 14.8282 17.7374L14.4988 18.0009C13.0379 19.1696 10.9621 19.1696 9.50122 18.0009L9.17183 17.7374C7.86624 16.6929 6.04876 16.5707 4.61506 17.4309L2 18.9999M22 12.9999L19.3849 11.4309C17.9512 10.5707 16.1338 10.6929 14.8282 11.7374L14.4988 12.0009C13.0379 13.1696 10.9621 13.1696 9.50122 12.0009L9.17183 11.7374C7.86624 10.6929 6.04876 10.5707 4.61506 11.4309L2 12.9999M22 6.99992L19.3849 5.43089C17.9512 4.57067 16.1338 4.69291 14.8282 5.73738L14.4988 6.0009C13.0379 7.1696 10.9621 7.1696 9.50122 6.0009L9.17183 5.73738C7.86624 4.69291 6.04876 4.57067 4.61506 5.43089L2 6.99992" stroke="#28303F" stroke-width="1.5" stroke-linecap="round"/>
</svg>
