<svg width="24" height="24" viewBox="0 0 24 24" fill="none" xmlns="http://www.w3.org/2000/svg">
<path d="M13 8L10 12H14L11 16" stroke="#28303F" stroke-width="1.5" stroke-linecap="round" stroke-linejoin="round"/>
<path d="M4.92893 4.92871C3.11929 6.73836 2 9.23835 2 11.9998C2 14.7612 3.11929 17.2612 4.92893 19.0708M7.75736 7.75714C6.67157 8.84292 6 10.3429 6 11.9998C6 13.6566 6.67157 15.1566 7.75736 16.2424M19.0711 19.0708C20.8807 17.2612 22 14.7612 22 11.9998C22 9.23835 20.8807 6.73836 19.0711 4.92871M16.2426 16.2424C17.3284 15.1566 18 13.6566 18 11.9998C18 10.3429 17.3284 8.84292 16.2426 7.75714" stroke="#28303F" stroke-width="1.5" stroke-linecap="round" stroke-linejoin="round"/>
</svg>
